{
  "accessors": [
    {
      "bufferView": 2,
      "byteOffset": 0,
      "componentType": 5126,
      "count": 4524,
      "max": [1, 1, 1, 1],
      "min": [0.05637409910559654, 0.01606770046055317, 0, 1],
      "name": "accessor_color_m0-PolyPaper1_-258508",
      "type": "VEC4"
    },
    {
      "bufferView": 0,
      "byteOffset": 0,
      "componentType": 5123,
      "count": 6168,
      "max": [4523],
      "min": [0],
      "name": "accessor_indices_0_m0-PolyPaper1_-258508",
      "type": "SCALAR"
    },
    {
      "bufferView": 1,
      "byteOffset": 54288,
      "componentType": 5126,
      "count": 4524,
      "max": [0.9986452, 0.999438, 0.9965401],
      "min": [-0.9999624, -0.9998469, -0.9985222],
      "name": "accessor_normal_m0-PolyPaper1_-258508",
      "type": "VEC3"
    },
    {
      "bufferView": 1,
      "byteOffset": 0,
      "componentType": 5126,
      "count": 4524,
      "max": [0.2133382, 2.10981, -0.5548311],
      "min": [-0.4410327, 1.016629, -1.290619],
      "name": "accessor_position_m0-PolyPaper1_-258508",
      "type": "VEC3"
    }
  ],
  "asset": {
    "copyright": "Unknown",
    "extras": {
      "GOOGLE_processor_version": 294144208
    },
    "generator": "glTF 1-to-2 Upgrader for Google Blocks",
    "version": "2.0"
  },
  "bufferViews": [
    {
      "buffer": 0,
      "byteLength": 12336,
      "byteOffset": 0,
      "name": "ushortBufferView",
      "target": 34963
    },
    {
      "buffer": 0,
      "byteLength": 108576,
      "byteOffset": 12336,
      "byteStride": 12,
      "name": "vec3BufferView",
      "target": 34962
    },
    {
      "buffer": 0,
      "byteLength": 72384,
      "byteOffset": 120912,
      "byteStride": 16,
      "name": "vec4BufferView",
      "target": 34962
    }
  ],
  "buffers": [
    {
      "byteLength": 193296,
      "name": "man",
      "uri": "man.bin"
    }
  ],
  "cameras": [
    {
      "perspective": {
        "yfov": 0.7853981633974483,
        "znear": 0.1000000014901161
      },
      "type": "perspective"
    }
  ],
  "extensions": {
    "KHR_lights_punctual": {
      "lights": [
        {
          "color": [1, 0.9333333333333333, 0.8666666666666667],
          "intensity": 0.25,
          "name": "headLight",
          "type": "directional"
        },
        {
          "color": [1, 0.9333333333333333, 0.8666666666666667],
          "intensity": 0.324999988079071,
          "name": "keyLight",
          "type": "directional"
        }
      ]
    }
  },
  "extensionsUsed": [
    "GOOGLE_backgrounds",
    "GOOGLE_camera_settings",
    "KHR_lights_punctual"
  ],
  "extras": {
    "GOOGLE_initial_camera_motion": {
      "motionPath": "FULL_ROTATION"
    },
    "GOOGLE_lighting_rig": {
      "disableShadows": false
    }
  },
  "materials": [
    {
      "alphaMode": "OPAQUE",
      "doubleSided": false,
      "name": "BlocksPaper",
      "pbrMetallicRoughness": {
        "baseColorFactor": [1, 1, 1, 1],
        "metallicFactor": 0,
        "roughnessFactor": 0.6
      }
    },
    {
      "alphaMode": "BLEND",
      "doubleSided": false,
      "name": "BlocksGlass",
      "pbrMetallicRoughness": {
        "baseColorFactor": [0.2, 0.2, 1, 0.3],
        "metallicFactor": 1,
        "roughnessFactor": 0.4
      }
    },
    {
      "alphaMode": "OPAQUE",
      "doubleSided": true,
      "name": "BlocksGem",
      "pbrMetallicRoughness": {
        "baseColorFactor": [1, 0.4, 1, 1],
        "metallicFactor": 0,
        "roughnessFactor": 0.1
      }
    }
  ],
  "meshes": [
    {
      "name": "mesh_m0-PolyPaper1_-258508",
      "primitives": [
        {
          "attributes": {
            "COLOR_0": 0,
            "NORMAL": 2,
            "POSITION": 3
          },
          "indices": 1,
          "material": 0,
          "mode": 4
        }
      ]
    }
  ],
  "nodes": [
    {
      "mesh": 0,
      "name": "node_MeshObject-669582656-PolyPaper1"
    },
    {
      "children": [2]
    },
    {
      "children": [3],
      "extras": {
        "isTransformNode": 1
      },
      "translation": [
        -0.1537198900227425,
        1.601713711736393,
        -0.9717221949879192
      ]
    },
    {
      "children": [0],
      "translation": [
        0.1537198900227425,
        -1.601713711736393,
        0.9717221949879192
      ]
    },
    {
      "camera": 0,
      "children": [5],
      "rotation": [
        -0.08469924208280688,
        0.5466938935690536,
        0.05570990552799723,
        0.8311728048672959
      ],
      "translation": [1.30527122590734, 1.90122835465508, -0.2908713652231277]
    },
    {
      "extensions": {
        "KHR_lights_punctual": {
          "light": 0
        }
      },
      "extras": {
        "isHeadLight": 1
      },
      "name": "headLightNode",
      "translation": [
        -0.6845961615579842,
        0.3422980807789921,
        0.3422980807789921
      ]
    },
    {
      "extensions": {
        "KHR_lights_punctual": {
          "light": 1
        }
      },
      "extras": {
        "isKeyLight": 1
      },
      "name": "keyLightNode",
      "rotation": [
        -0.7505326882858236,
        -0.3752663441429118,
        0,
        0.5439447166468927
      ],
      "scale": [0, 0, 0.691442123173564],
      "translation": [-0.822902678260629, 2.895297300867341, -1.644103882659602]
    }
  ],
  "scene": 0,
  "scenes": [
    {
      "extensions": {
        "GOOGLE_backgrounds": {
          "color": [0.1019607843137255, 0.1372549019607843, 0.4941176470588236]
        },
        "GOOGLE_camera_settings": {
          "pivot": [0, 0, 0]
        }
      },
      "extras": {
        "GOOGLE_camera_index": {
          "cameraIndex": 0,
          "nodeIndex": 4
        },
        "GOOGLE_geometry_data": {
          "stats": {
            "centroid": [
              -0.131460555087065,
              1.512413054520213,
              -0.9526617594860382
            ],
            "radius": 0.6845961615579842,
            "stdev": 0.3315018974597352
          },
          "visualCenterPoint": [
            -0.1537198900227425,
            1.601713711736393,
            -0.9717221949879192
          ]
        },
        "GOOGLE_hemi_light": {
          "groundColor": [
            0.1019607843137255,
            0.1372549019607843,
            0.4941176470588236
          ]
        }
      },
      "name": "defaultScene",
      "nodes": [1, 4, 6]
    }
  ]
}
